<?xml version="1.0" encoding="UTF-8"?>
<svg id="Layer_1" data-name="Layer 1" xmlns="http://www.w3.org/2000/svg" viewBox="0 0 499.69 549.46">
  <defs>
    <style>
      .cls-1 {
        fill: #ab2215;
      }

      .cls-2 {
        fill: #fff;
      }
    </style>
  </defs>
  <g>
    <path class="cls-2" d="M68.42,400.19v-69.95h13.39l41.27,50.36h-6.5v-50.36h15.99v69.95h-13.29l-41.37-50.36h6.49v50.36h-15.99Z"/>
    <path class="cls-2" d="M139.97,400.19l31.18-69.95h15.99l31.28,69.95h-16.99l-25.58-61.75h6.4l-25.68,61.75h-16.59ZM155.56,385.2l4.3-12.29h35.97l4.4,12.29h-44.67Z"/>
    <path class="cls-2" d="M254.88,401.39c-9.93,0-17.68-2.76-23.28-8.29-5.6-5.53-8.39-13.42-8.39-23.68v-39.17h16.19v38.57c0,6.66,1.37,11.46,4.1,14.39,2.73,2.93,6.56,4.4,11.49,4.4s8.76-1.47,11.49-4.4c2.73-2.93,4.1-7.73,4.1-14.39v-38.57h15.99v39.17c0,10.26-2.8,18.15-8.39,23.68-5.6,5.53-13.35,8.29-23.28,8.29Z"/>
    <path class="cls-2" d="M317.04,400.19v-56.76h-22.39v-13.19h60.96v13.19h-22.39v56.76h-16.19Z"/>
    <path class="cls-2" d="M364.3,400.19v-69.95h16.19v69.95h-16.19Z"/>
    <path class="cls-2" d="M389.08,400.19l30.08-41.47v11.79l-28.78-40.27h18.39l19.89,28.08-7.69.1,19.59-28.18h17.59l-28.58,39.57v-11.59l30.28,41.97h-18.69l-20.58-29.68h7.39l-20.29,29.68h-18.58Z"/>
  </g>
  <g>
    <path class="cls-2" d="M146.2,465.04l2.69-5.67c3.78,3.42,10.25,5.89,16.78,5.89,8.79,0,12.57-3.41,12.57-7.85,0-12.43-30.81-4.58-30.81-23.47,0-7.85,6.1-14.53,19.47-14.53,5.96,0,12.14,1.6,16.35,4.51l-2.4,5.81c-4.43-2.83-9.45-4.14-13.95-4.14-8.65,0-12.35,3.63-12.35,8.07,0,12.42,30.81,4.65,30.81,23.32,0,7.77-6.25,14.46-19.69,14.46-7.77,0-15.4-2.62-19.47-6.39Z"/>
    <path class="cls-2" d="M199.54,448.91v-28.92h7.27v28.63c0,11.26,5.16,16.35,14.32,16.35s14.39-5.09,14.39-16.35v-28.63h7.05v28.92c0,14.75-8.07,22.53-21.51,22.53s-21.51-7.77-21.51-22.53Z"/>
    <path class="cls-2" d="M261.45,419.99h7.27v50.86h-7.27v-50.86Z"/>
    <path class="cls-2" d="M298.08,426.31h-17.44v-6.32h42.07v6.32h-17.44v44.54h-7.19v-44.54Z"/>
    <path class="cls-2" d="M371.55,464.53v6.32h-36.91v-50.86h35.89v6.32h-28.63v15.62h25.5v6.18h-25.5v16.42h29.65Z"/>
  </g>
  <g>
    <path class="cls-2" d="M206.03,506.46c0,4.36-3.31,6.87-9.74,6.87h-12.14v-25.43h11.41c5.85,0,9.12,2.47,9.12,6.58,0,2.76-1.42,4.69-3.42,5.67,2.87.8,4.76,2.94,4.76,6.32ZM187.79,490.84v8.14h7.45c3.71,0,5.81-1.38,5.81-4.07s-2.11-4.07-5.81-4.07h-7.45ZM202.37,506.17c0-2.94-2.18-4.25-6.21-4.25h-8.36v8.47h8.36c4.03,0,6.21-1.27,6.21-4.21Z"/>
    <path class="cls-2" d="M221.41,504.54v8.79h-3.6v-8.86l-10.1-16.57h3.89l8.14,13.41,8.17-13.41h3.6l-10.1,16.64Z"/>
    <path class="cls-2" d="M242.63,510.42l1.34-2.83c1.89,1.71,5.12,2.94,8.39,2.94,4.39,0,6.28-1.71,6.28-3.92,0-6.21-15.4-2.29-15.4-11.73,0-3.92,3.05-7.27,9.74-7.27,2.98,0,6.07.8,8.17,2.25l-1.2,2.91c-2.22-1.42-4.72-2.07-6.98-2.07-4.32,0-6.18,1.82-6.18,4.03,0,6.21,15.4,2.33,15.4,11.66,0,3.89-3.13,7.23-9.84,7.23-3.89,0-7.7-1.31-9.74-3.2Z"/>
    <path class="cls-2" d="M291.1,513.33l-.04-18.53-9.19,15.44h-1.67l-9.19-15.33v18.42h-3.49v-25.43h2.98l10.61,17.88,10.46-17.88h2.98l.04,25.43h-3.49Z"/>
    <path class="cls-2" d="M319.84,500.47h3.49v9.92c-2.54,2.14-6.07,3.23-9.63,3.23-7.81,0-13.55-5.49-13.55-13.01s5.74-13.01,13.62-13.01c4.03,0,7.45,1.34,9.77,3.92l-2.25,2.25c-2.11-2.03-4.51-2.94-7.38-2.94-5.89,0-10.13,4.11-10.13,9.77s4.25,9.77,10.1,9.77c2.14,0,4.14-.47,5.96-1.64v-8.28Z"/>
  </g>
  <g>
    <path class="cls-2" d="M236.2,255.03c-14.97-4.65-28.44-14.69-35.41-28.98-8.88-18.18,2.66-23.67,10.13-28.4h-97.23l58.55,10.83c5.96,36.04,33.05,65.79,70.07,70.02"/>
    <path class="cls-2" d="M195.17,182.77c14.73-35.85,41.91-39.92,41.91-39.92l7-1.28,4.72-22.21-5.67-1.73c-36.47,7.58-63.54,32.5-70.5,69.56"/>
    <path class="cls-2" d="M269.22,141.95c20.25,6.87,37.99,22.61,40.89,48.04l23.36-.28c-4.1-35.67-34.3-66.88-70.36-70.36l6.1,22.59Z"/>
    <polygon class="cls-2" points="339.68 112.4 328.38 145.43 306.66 123.69 339.68 112.4"/>
    <polygon class="cls-2" points="162.78 112.4 174.09 145.43 195.81 123.69 162.78 112.4"/>
    <polygon class="cls-2" points="339.68 285.95 328.38 252.91 306.66 274.65 339.68 285.95"/>
    <polygon class="cls-2" points="162.78 285.95 174.09 252.91 195.81 274.65 162.78 285.95"/>
    <rect class="cls-2" x="286.5" y="228.56" width="23.59" height="23.59"/>
    <rect class="cls-2" x="309.04" y="203.98" width="24.66" height="24.66"/>
    <polygon class="cls-2" points="254.42 37.5 254.42 197.65 233.74 172.42 254.42 37.5"/>
  </g>
  <polygon class="cls-1" points="254.42 357.8 254.42 197.66 275.1 222.88 254.42 357.8"/>
  <polygon class="cls-2" points="94.27 197.65 254.42 197.65 229.19 218.33 94.27 197.65"/>
</svg>