<svg version="1.2" xmlns="http://www.w3.org/2000/svg" viewBox="0 0 500 550" width="500" height="550">
	<title>NAUTIX logo final-06</title>
	<style>
		.s0 { fill: #005590 } 
		.s1 { fill: #ffffff } 
		.s2 { fill: #ab2215 } 
	</style>
	<g>
		<path class="s0" d="m68.4 400.2v-70h13.4l41.3 50.4h-6.5v-50.4h16v70h-13.3l-41.4-50.4h6.5v50.4c0 0-16 0-16 0z"/>
		<path class="s0" d="m140 400.2l31.2-70h15.9l31.3 70h-17l-25.5-61.8h6.4l-25.7 61.8h-16.6zm15.6-15l4.3-12.3h35.9l4.4 12.3z"/>
		<path class="s0" d="m254.9 401.4q-14.9 0-23.3-8.3-8.4-8.3-8.4-23.7v-39.2h16.2v38.6q0 10 4.1 14.4 4.1 4.4 11.5 4.4 7.4 0 11.5-4.4 4.1-4.4 4.1-14.4v-38.6h16v39.2q0 15.4-8.4 23.7-8.4 8.3-23.3 8.3z"/>
		<path class="s0" d="m317 400.2v-56.8h-22.3v-13.2h60.9v13.2h-22.4v56.8c0 0-16.2 0-16.2 0z"/>
		<path class="s1" d="m364.3 400.2v-70h16.2v70z"/>
		<path class="s1" d="m389.1 400.2l30.1-41.5v11.8l-28.8-40.3h18.4l19.9 28.1-7.7 0.1 19.6-28.2h17.5l-28.5 39.6v-11.6l30.2 42h-18.6l-20.6-29.7h7.4l-20.3 29.7h-18.6z"/>
	</g>
	<g>
		<path class="s1" d="m146.2 465l2.7-5.6c3.8 3.4 10.2 5.9 16.8 5.9 8.8 0 12.5-3.5 12.5-7.9 0-12.4-30.8-4.6-30.8-23.5 0-7.8 6.1-14.5 19.5-14.5 6 0 12.1 1.6 16.3 4.5l-2.4 5.8c-4.4-2.8-9.4-4.1-13.9-4.1-8.7 0-12.4 3.6-12.4 8.1 0 12.4 30.9 4.6 30.9 23.3 0 7.7-6.3 14.4-19.7 14.4-7.8 0-15.4-2.6-19.5-6.4z"/>
		<path class="s1" d="m199.5 448.9v-28.9h7.3v28.6c0 11.3 5.2 16.4 14.3 16.4 9.2 0 14.4-5.1 14.4-16.4v-28.6h7.1v28.9c0 14.8-8.1 22.5-21.5 22.5-13.5 0-21.5-7.7-21.5-22.5z"/>
		<path class="s1" d="m261.4 420h7.3v50.9h-7.2z"/>
		<path class="s1" d="m298.1 426.3h-17.5v-6.3h42.1v6.3h-17.4v44.6h-7.2z"/>
		<path class="s1" d="m371.6 464.5l-0.1 6.3h-36.9v-50.8h35.9v6.3h-28.6v15.6h25.5v6.2h-25.5v16.4z"/>
	</g>
	<g>
		<path class="s1" d="m206 506.5c0 4.3-3.3 6.8-9.7 6.8h-12.2v-25.4h11.5c5.8 0 9.1 2.5 9.1 6.6 0 2.7-1.4 4.7-3.4 5.6 2.8 0.8 4.7 3 4.7 6.4zm-18.2-15.7v8.2h7.4c3.7 0 5.8-1.4 5.8-4.1 0-2.7-2.1-4.1-5.8-4.1zm14.6 15.4c0-3-2.2-4.3-6.2-4.3h-8.4v8.5h8.4c4 0 6.2-1.3 6.2-4.2z"/>
		<path class="s1" d="m221.4 504.5v8.8h-3.6v-8.8l-10.1-16.6h3.9l8.1 13.4 8.2-13.4h3.6z"/>
		<path class="s1" d="m242.6 510.4l1.4-2.8c1.9 1.7 5.1 2.9 8.4 2.9 4.4 0 6.2-1.7 6.2-3.9 0-6.2-15.4-2.3-15.4-11.7 0-3.9 3.1-7.3 9.8-7.3 3 0 6.1 0.8 8.1 2.3l-1.2 2.9c-2.2-1.4-4.7-2.1-6.9-2.1-4.3 0-6.2 1.8-6.2 4 0 6.2 15.4 2.4 15.4 11.7 0 3.9-3.1 7.2-9.8 7.2-3.9 0-7.7-1.3-9.8-3.2z"/>
		<path class="s1" d="m291.1 513.3v-18.5l-9.2 15.4h-1.7l-9.2-15.3v18.4h-3.5v-25.4h3l10.6 17.9 10.5-17.9h2.9l0.1 25.4z"/>
		<path class="s1" d="m319.8 500.5h3.5v9.9c-2.5 2.1-6 3.2-9.6 3.2-7.8 0-13.6-5.5-13.6-13 0-7.5 5.8-13 13.7-13 4 0 7.4 1.3 9.7 3.9l-2.2 2.3c-2.1-2.1-4.5-3-7.4-3-5.9 0-10.1 4.1-10.1 9.8 0 5.7 4.2 9.8 10.1 9.8 2.1 0 4.1-0.5 5.9-1.7v-8.2z"/>
	</g>
	<g>
		<path class="s1" d="m236.2 255c-15-4.6-28.4-14.7-35.4-28.9-8.9-18.2 2.6-23.7 10.1-28.4h-97.2l58.5 10.8c6 36 33.1 65.8 70.1 70"/>
		<path class="s1" d="m195.2 182.8c14.7-35.9 41.9-39.9 41.9-39.9l7-1.3 4.7-22.2-5.7-1.8c-36.4 7.6-63.5 32.5-70.5 69.6"/>
		<path class="s1" d="m269.2 141.9c20.3 6.9 38 22.7 40.9 48.1l23.4-0.3c-4.1-35.7-34.3-66.9-70.4-70.4l6.1 22.6z"/>
		<path fill-rule="evenodd" class="s0" d="m339.7 112.4l-11.3 33-21.7-21.7 33-11.3z"/>
		<path fill-rule="evenodd" class="s0" d="m162.8 112.4l11.3 33 21.7-21.7-33-11.3z"/>
		<path fill-rule="evenodd" class="s0" d="m339.7 285.9l-11.3-33-21.7 21.8 33 11.3z"/>
		<path fill-rule="evenodd" class="s0" d="m162.8 285.9l11.3-33 21.7 21.8-33 11.3z"/>
		<path fill-rule="evenodd" class="s0" d="m286.5 228.6h23.6v23.6h-23.6z"/>
		<path fill-rule="evenodd" class="s0" d="m309 204h24.7v24.6h-24.7z"/>
		<path fill-rule="evenodd" class="s0" d="m254.4 37.5v160.2l-20.7-25.3 20.7-134.9z"/>
	</g>
	<path fill-rule="evenodd" class="s2" d="m254.4 357.8v-160.1l20.7 25.2-20.7 134.9z"/>
	<path fill-rule="evenodd" class="s1" d="m94.3 197.7h160.1l-25.2 20.6-134.9-20.6z"/>
</svg>